<?xml version="1.0" encoding="UTF-8"?>
<svg width="700pt" height="700pt" version="1.1" viewBox="0 0 700 700" xmlns="http://www.w3.org/2000/svg" xmlns:xlink="http://www.w3.org/1999/xlink">
 <defs>
  <symbol id="w" overflow="visible">
   <path d="m4.6875-0.28125c-0.24219 0.125-0.49219 0.21875-0.75 0.28125-0.26172 0.0625-0.53906 0.09375-0.82812 0.09375-0.84375 0-1.5156-0.23438-2.0156-0.70312-0.5-0.47656-0.75-1.125-0.75-1.9375s0.25-1.457 0.75-1.9375c0.5-0.47656 1.1719-0.71875 2.0156-0.71875 0.28906 0 0.56641 0.039063 0.82812 0.10938 0.25781 0.0625 0.50781 0.15625 0.75 0.28125v1.0469c-0.24219-0.16406-0.48047-0.28516-0.71875-0.35938-0.24219-0.070312-0.49219-0.10938-0.75-0.10938-0.46875 0-0.83984 0.15234-1.1094 0.45312-0.27344 0.29297-0.40625 0.70312-0.40625 1.2344s0.13281 0.94922 0.40625 1.25c0.26953 0.29297 0.64062 0.4375 1.1094 0.4375 0.25781 0 0.50781-0.035156 0.75-0.10938 0.23828-0.082031 0.47656-0.20703 0.71875-0.375z"/>
  </symbol>
  <symbol id="d" overflow="visible">
   <path d="m3.4375-2.7812c-0.11719-0.050781-0.22656-0.085938-0.32812-0.10938-0.10547-0.03125-0.21094-0.046875-0.3125-0.046875-0.3125 0-0.55859 0.10547-0.73438 0.3125-0.16797 0.19922-0.25 0.48438-0.25 0.85938v1.7656h-1.2188v-3.8281h1.2188v0.625c0.15625-0.25 0.33203-0.42969 0.53125-0.54688 0.20703-0.11328 0.45703-0.17188 0.75-0.17188 0.03125 0 0.070312 0.007813 0.125 0.015625 0.050781 0 0.11719 0.007812 0.20312 0.015625z"/>
  </symbol>
  <symbol id="a" overflow="visible">
   <path d="m4.4062-1.9219v0.34375h-2.8594c0.03125 0.29297 0.13281 0.51172 0.3125 0.65625 0.17578 0.13672 0.42578 0.20312 0.75 0.20312 0.25 0 0.50781-0.035156 0.78125-0.10938 0.26953-0.070313 0.55078-0.1875 0.84375-0.34375v0.9375c-0.29297 0.11719-0.58594 0.19922-0.875 0.25-0.29297 0.050781-0.58594 0.078125-0.875 0.078125-0.6875 0-1.2266-0.17188-1.6094-0.51562-0.38672-0.35156-0.57812-0.84766-0.57812-1.4844 0-0.625 0.1875-1.1133 0.5625-1.4688 0.38281-0.36328 0.90625-0.54688 1.5625-0.54688 0.60156 0 1.082 0.18359 1.4375 0.54688 0.36328 0.36719 0.54688 0.85156 0.54688 1.4531zm-1.25-0.40625c0-0.23828-0.070312-0.42578-0.20312-0.5625-0.13672-0.14453-0.3125-0.21875-0.53125-0.21875-0.24219 0-0.4375 0.070313-0.59375 0.20312-0.14844 0.13672-0.23438 0.32812-0.26562 0.57812z"/>
  </symbol>
  <symbol id="b" overflow="visible">
   <path d="m2.2969-1.7188c-0.25 0-0.44531 0.042969-0.57812 0.125-0.125 0.085938-0.1875 0.21484-0.1875 0.39062 0 0.14844 0.050781 0.26562 0.15625 0.35938 0.10156 0.085938 0.25 0.125 0.4375 0.125 0.22656 0 0.42188-0.078125 0.57812-0.23438 0.15625-0.16406 0.23438-0.375 0.23438-0.625v-0.14062zm1.875-0.46875v2.1875h-1.2344v-0.5625c-0.16797 0.23047-0.35547 0.39844-0.5625 0.5-0.19922 0.10156-0.44531 0.15625-0.73438 0.15625-0.39844 0-0.71875-0.11328-0.96875-0.34375-0.25-0.22656-0.375-0.53125-0.375-0.90625 0-0.44531 0.15625-0.77344 0.46875-0.98438 0.3125-0.20703 0.79688-0.3125 1.4531-0.3125h0.71875v-0.09375c0-0.19531-0.078125-0.33594-0.23438-0.42188-0.14844-0.09375-0.38281-0.14062-0.70312-0.14062-0.26172 0-0.50781 0.027344-0.73438 0.078125-0.23047 0.054688-0.4375 0.13281-0.625 0.23438v-0.92188c0.25781-0.070312 0.51953-0.125 0.78125-0.15625 0.26953-0.03125 0.53516-0.046875 0.79688-0.046875 0.6875 0 1.1797 0.13672 1.4844 0.40625 0.3125 0.27344 0.46875 0.71484 0.46875 1.3281z"/>
  </symbol>
  <symbol id="c" overflow="visible">
   <path d="m1.9219-4.9219v1.0938h1.2656v0.875h-1.2656v1.625c0 0.17969 0.035156 0.29688 0.10938 0.35938 0.070312 0.0625 0.21094 0.09375 0.42188 0.09375h0.625v0.875h-1.0469c-0.48047 0-0.82422-0.097656-1.0312-0.29688-0.19922-0.20703-0.29688-0.55078-0.29688-1.0312v-1.625h-0.60938v-0.875h0.60938v-1.0938z"/>
  </symbol>
  <symbol id="m" overflow="visible">
   <path d="m3.1875-3.2656v-2.0469h1.2344v5.3125h-1.2344v-0.54688c-0.16797 0.21875-0.35547 0.38281-0.5625 0.48438-0.19922 0.10156-0.42969 0.15625-0.6875 0.15625-0.48047 0-0.87109-0.1875-1.1719-0.5625-0.30469-0.375-0.45312-0.85156-0.45312-1.4375 0-0.59375 0.14844-1.0781 0.45312-1.4531 0.30078-0.375 0.69141-0.5625 1.1719-0.5625 0.25781 0 0.48828 0.054687 0.6875 0.15625 0.20703 0.10547 0.39453 0.27344 0.5625 0.5zm-0.79688 2.4688c0.25781 0 0.45703-0.09375 0.59375-0.28125 0.13281-0.1875 0.20312-0.46094 0.20312-0.82812 0-0.36328-0.070312-0.64062-0.20312-0.82812-0.13672-0.19531-0.33594-0.29688-0.59375-0.29688-0.26172 0-0.46484 0.10156-0.60938 0.29688-0.13672 0.1875-0.20312 0.46484-0.20312 0.82812 0 0.36719 0.066406 0.64062 0.20312 0.82812 0.14453 0.1875 0.34766 0.28125 0.60938 0.28125z"/>
  </symbol>
  <symbol id="l" overflow="visible">
   <path d="m2.625-0.79688c0.25781 0 0.45703-0.09375 0.59375-0.28125 0.14453-0.1875 0.21875-0.46094 0.21875-0.82812 0-0.36328-0.074219-0.64062-0.21875-0.82812-0.13672-0.19531-0.33594-0.29688-0.59375-0.29688-0.26172 0-0.46484 0.10156-0.60938 0.29688-0.13672 0.1875-0.20312 0.46484-0.20312 0.82812 0 0.35547 0.066406 0.63281 0.20312 0.82812 0.14453 0.1875 0.34766 0.28125 0.60938 0.28125zm-0.8125-2.4688c0.16406-0.22656 0.35156-0.39453 0.5625-0.5 0.20703-0.10156 0.44141-0.15625 0.70312-0.15625 0.46875 0 0.85156 0.1875 1.1562 0.5625 0.3125 0.375 0.46875 0.85938 0.46875 1.4531 0 0.58594-0.15625 1.0625-0.46875 1.4375-0.30469 0.375-0.6875 0.5625-1.1562 0.5625-0.26172 0-0.49609-0.054688-0.70312-0.15625-0.21094-0.10156-0.39844-0.26562-0.5625-0.48438v0.54688h-1.2188v-5.3125h1.2188z"/>
  </symbol>
  <symbol id="k" overflow="visible">
   <path d="m0.078125-3.8281h1.2344l1.0312 2.5938 0.875-2.5938h1.2188l-1.6094 4.1875c-0.16797 0.42578-0.35938 0.72266-0.57812 0.89062-0.21094 0.17578-0.49219 0.26562-0.84375 0.26562h-0.70312v-0.8125h0.375c0.20703 0 0.35938-0.03125 0.45312-0.09375s0.16406-0.18359 0.21875-0.35938l0.046875-0.10938z"/>
  </symbol>
  <symbol id="f" overflow="visible">
   <path d="m0.03125-5.1094h1.3281l1.3438 3.7656 1.3594-3.7656h1.3281l-1.8906 5.1094h-1.5781z"/>
  </symbol>
  <symbol id="j" overflow="visible">
   <path d="m0.59375-5.3125h1.2188v5.3125h-1.2188z"/>
  </symbol>
  <symbol id="i" overflow="visible">
   <path d="m0.59375-3.8281h1.2188v3.8281h-1.2188zm0-1.4844h1.2188v0.98438h-1.2188z"/>
  </symbol>
  <symbol id="h" overflow="visible">
   <path d="m3.5781-3.7031v0.92188c-0.26172-0.10156-0.51562-0.17969-0.76562-0.23438-0.24219-0.0625-0.46875-0.09375-0.6875-0.09375-0.23047 0-0.40234 0.03125-0.51562 0.09375-0.11719 0.054687-0.17188 0.14062-0.17188 0.26562 0 0.09375 0.039062 0.16797 0.125 0.21875 0.09375 0.054688 0.25 0.09375 0.46875 0.125l0.21875 0.03125c0.625 0.074219 1.0391 0.20312 1.25 0.39062 0.21875 0.17969 0.32812 0.46484 0.32812 0.85938 0 0.40625-0.15234 0.71484-0.45312 0.92188-0.29297 0.19922-0.74219 0.29688-1.3438 0.29688-0.25 0-0.51172-0.023438-0.78125-0.0625-0.27344-0.03125-0.54688-0.085938-0.82812-0.17188v-0.92188c0.23828 0.11719 0.48828 0.20312 0.75 0.26562 0.25781 0.054687 0.51953 0.078125 0.78125 0.078125 0.23828 0 0.41406-0.03125 0.53125-0.09375 0.125-0.0625 0.1875-0.16016 0.1875-0.29688 0-0.10156-0.042969-0.17969-0.125-0.23438-0.085937-0.0625-0.25-0.10938-0.5-0.14062l-0.21875-0.015625c-0.54297-0.070312-0.92188-0.19531-1.1406-0.375-0.21875-0.1875-0.32812-0.46875-0.32812-0.84375 0-0.40625 0.14062-0.70703 0.42188-0.90625 0.28125-0.19531 0.70703-0.29688 1.2812-0.29688 0.21875 0 0.45312 0.023437 0.70312 0.0625 0.25 0.03125 0.51953 0.085937 0.8125 0.15625z"/>
  </symbol>
  <symbol id="e" overflow="visible">
   <path d="m2.4062-3.0469c-0.27344 0-0.48047 0.10156-0.625 0.29688-0.13672 0.1875-0.20312 0.46875-0.20312 0.84375 0 0.36719 0.066406 0.64844 0.20312 0.84375 0.14453 0.1875 0.35156 0.28125 0.625 0.28125 0.26953 0 0.47266-0.09375 0.60938-0.28125 0.14453-0.19531 0.21875-0.47656 0.21875-0.84375 0-0.375-0.074219-0.65625-0.21875-0.84375-0.13672-0.19531-0.33984-0.29688-0.60938-0.29688zm0-0.875c0.65625 0 1.1719 0.17969 1.5469 0.53125 0.375 0.35547 0.5625 0.85156 0.5625 1.4844 0 0.625-0.1875 1.1172-0.5625 1.4688-0.375 0.35547-0.89062 0.53125-1.5469 0.53125s-1.1719-0.17578-1.5469-0.53125c-0.375-0.35156-0.5625-0.84375-0.5625-1.4688 0-0.63281 0.1875-1.1289 0.5625-1.4844 0.375-0.35156 0.89062-0.53125 1.5469-0.53125z"/>
  </symbol>
  <symbol id="g" overflow="visible">
   <path d="m0.10938-3.8281h1.2188l0.95312 2.6406 0.95312-2.6406h1.2188l-1.5 3.8281h-1.3438z"/>
  </symbol>
  <symbol id="v" overflow="visible">
   <path d="m3.1094-5.3125v0.79688h-0.67188c-0.17969 0-0.30469 0.03125-0.375 0.09375-0.0625 0.0625-0.09375 0.17188-0.09375 0.32812v0.26562h1.0469v0.875h-1.0469v2.9531h-1.2344v-2.9531h-0.59375v-0.875h0.59375v-0.26562c0-0.41406 0.11328-0.72266 0.34375-0.92188 0.23828-0.19531 0.60156-0.29688 1.0938-0.29688z"/>
  </symbol>
  <symbol id="u" overflow="visible">
   <path d="m4.1406-3.1875c0.15625-0.23828 0.33594-0.42188 0.54688-0.54688 0.20703-0.125 0.44141-0.1875 0.70312-0.1875 0.4375 0 0.76953 0.13672 1 0.40625 0.22656 0.27344 0.34375 0.66797 0.34375 1.1875v2.3281h-1.2188v-2-0.09375-0.125c0-0.26953-0.042969-0.46875-0.125-0.59375-0.074219-0.125-0.19922-0.1875-0.375-0.1875-0.24219 0-0.42188 0.10156-0.54688 0.29688-0.125 0.1875-0.1875 0.46484-0.1875 0.82812v1.875h-1.2344v-2c0-0.41406-0.039063-0.6875-0.10938-0.8125-0.074219-0.125-0.20312-0.1875-0.39062-0.1875-0.24219 0-0.42188 0.10156-0.54688 0.29688-0.125 0.1875-0.1875 0.46094-0.1875 0.8125v1.8906h-1.2344v-3.8281h1.2344v0.5625c0.14453-0.21875 0.31641-0.37891 0.51562-0.48438 0.19531-0.11328 0.41016-0.17188 0.64062-0.17188 0.26953 0 0.50391 0.070313 0.70312 0.20312 0.20703 0.125 0.36328 0.30469 0.46875 0.53125z"/>
  </symbol>
  <symbol id="t" overflow="visible">
   <path d="m4.4375-2.3281v2.3281h-1.2344v-1.7812c0-0.33203-0.011719-0.5625-0.03125-0.6875-0.011719-0.125-0.03125-0.21875-0.0625-0.28125-0.054687-0.070312-0.12109-0.12891-0.20312-0.17188-0.074219-0.050781-0.16797-0.078125-0.28125-0.078125-0.25 0-0.44922 0.10156-0.59375 0.29688-0.14844 0.19922-0.21875 0.46875-0.21875 0.8125v1.8906h-1.2188v-5.3125h1.2188v2.0469c0.1875-0.22656 0.37891-0.39453 0.57812-0.5 0.20703-0.10156 0.44141-0.15625 0.70312-0.15625 0.4375 0 0.76953 0.13672 1 0.40625 0.22656 0.27344 0.34375 0.66797 0.34375 1.1875z"/>
  </symbol>
  <symbol id="s" overflow="visible">
   <path d="m0.64062-5.1094h1.4688l1.8594 3.5v-3.5h1.25v5.1094h-1.4688l-1.8594-3.5v3.5h-1.25z"/>
  </symbol>
  <symbol id="r" overflow="visible">
   <path d="m0.54688-1.4844v-2.3438h1.2344v0.375c0 0.21094-0.007812 0.47656-0.015625 0.79688v0.625c0 0.30469 0.003906 0.52344 0.015625 0.65625 0.019531 0.13672 0.050781 0.23438 0.09375 0.29688 0.050781 0.085937 0.11328 0.14844 0.1875 0.1875 0.082031 0.042969 0.17969 0.0625 0.29688 0.0625 0.25 0 0.44531-0.097656 0.59375-0.29688 0.14453-0.19531 0.21875-0.46875 0.21875-0.8125v-1.8906h1.2188v3.8281h-1.2188v-0.54688c-0.1875 0.21875-0.38672 0.38281-0.59375 0.48438-0.19922 0.10156-0.42188 0.15625-0.67188 0.15625-0.44922 0-0.78906-0.13281-1.0156-0.40625-0.23047-0.26953-0.34375-0.66016-0.34375-1.1719z"/>
  </symbol>
  <symbol id="q" overflow="visible">
   <path d="m4.4375-2.3281v2.3281h-1.2344v-1.7812c0-0.33203-0.011719-0.5625-0.03125-0.6875-0.011719-0.125-0.03125-0.21875-0.0625-0.28125-0.054687-0.070312-0.12109-0.12891-0.20312-0.17188-0.074219-0.050781-0.16797-0.078125-0.28125-0.078125-0.25 0-0.44922 0.10156-0.59375 0.29688-0.14844 0.19922-0.21875 0.46875-0.21875 0.8125v1.8906h-1.2188v-3.8281h1.2188v0.5625c0.1875-0.22656 0.37891-0.39453 0.57812-0.5 0.20703-0.10156 0.44141-0.15625 0.70312-0.15625 0.4375 0 0.76953 0.13672 1 0.40625 0.22656 0.27344 0.34375 0.66797 0.34375 1.1875z"/>
  </symbol>
  <symbol id="p" overflow="visible">
   <path d="m0.64062-5.1094h2.1875c0.64453 0 1.1406 0.14844 1.4844 0.4375 0.35156 0.29297 0.53125 0.70312 0.53125 1.2344s-0.17969 0.94531-0.53125 1.2344c-0.34375 0.29297-0.83984 0.4375-1.4844 0.4375h-0.875v1.7656h-1.3125zm1.3125 0.95312v1.4375h0.73438c0.25 0 0.44141-0.0625 0.57812-0.1875 0.14453-0.125 0.21875-0.30078 0.21875-0.53125 0-0.22656-0.074219-0.40625-0.21875-0.53125-0.13672-0.125-0.32812-0.1875-0.57812-0.1875z"/>
  </symbol>
  <symbol id="o" overflow="visible">
   <path d="m0.59375-3.8281h1.2188v3.7656c0 0.50781-0.125 0.89844-0.375 1.1719-0.24219 0.26953-0.59375 0.40625-1.0625 0.40625h-0.60938v-0.8125h0.21875c0.22656 0 0.38281-0.054687 0.46875-0.15625 0.09375-0.10547 0.14062-0.30859 0.14062-0.60938zm0-1.4844h1.2188v0.98438h-1.2188z"/>
  </symbol>
  <symbol id="n" overflow="visible">
   <path d="m3.6875-3.7031v1c-0.16797-0.11328-0.33984-0.19531-0.51562-0.25-0.16797-0.0625-0.33984-0.09375-0.51562-0.09375-0.34375 0-0.60938 0.10156-0.79688 0.29688-0.1875 0.19922-0.28125 0.48047-0.28125 0.84375 0 0.35547 0.09375 0.63281 0.28125 0.82812 0.1875 0.19922 0.45312 0.29688 0.79688 0.29688 0.19531 0 0.37891-0.023438 0.54688-0.078125 0.17578-0.0625 0.33594-0.14453 0.48438-0.25v1c-0.19922 0.074219-0.39844 0.125-0.59375 0.15625-0.19922 0.03125-0.39844 0.046875-0.59375 0.046875-0.6875 0-1.2305-0.17578-1.625-0.53125-0.38672-0.35156-0.57812-0.84375-0.57812-1.4688 0-0.63281 0.19141-1.1289 0.57812-1.4844 0.39453-0.35156 0.9375-0.53125 1.625-0.53125 0.20703 0 0.40625 0.023437 0.59375 0.0625 0.19531 0.03125 0.39453 0.085937 0.59375 0.15625z"/>
  </symbol>
 </defs>
 <g>
  <path d="m260.07 362.01c2.5781 3.5156 2.8828 7.6445 5.5742 11.941 6.6094 10.586 18.383 21.98 19.895 32.988-3.1914-3.5156-4.1992-6.4258-7.6602-9.4648-11.383-9.9844-17.824-19.391-17.797-35.465zm32.973-3.0117c-1.0234 6.5938-3.0234 12.602-4.3828 19.184-1.4688 7.1406-1.7656 13.09-2.7305 20.121-2.5078-1.8477-25.148-28.449-23.047-43.852 12.109 0.82422 16.746 7.4336 30.145 4.5508zm-33.336 17.348c3.1367 5.4336 4.2148 8.7656 8.2344 14.227 3.7656 5.0977 8.2188 8.1211 11.133 12 9.2266 12.336 8.707 19.363 12.824 33.574-8.8633-5.7422-34.316-42.73-32.188-59.801zm36.586-46.582c-5.9102 10.293-14.828 17.738-27.582 19.363 3.082-4.1719 21.941-15.414 27.582-19.363zm6.0195-3.3477c-0.78516 6.3164-4.5234 21.871-7.9805 26.84-5.125 7.3789-19.992 2.1836-25.414-1.1328 7.9648-2.2695 14.07-3.625 19.965-9.5625 4.1289-4.1602 9.9688-13.051 13.426-16.145zm-0.95312-126.67c1.0234 2.6172 2.3398 14.672 3.4297 19.488 4.1289 18.16 10.391 22.457 6.3984 38.391-4.7344 18.902-7.8672 34.473-21.199 51.387-6.3984 8.1055-16.02 19.336-23.48 25.23 3.6406-8.6797 13.625-16.898 19.559-24.949 7.4219-10.066 10.559-18.734 15.191-30.02 11.844-28.898-4.8008-69.715 0.085937-79.516zm10.934 63.426c2.0039 21.969-1.2734 36.77-11.637 55.43-6.0469 10.906-7.7422 10.332-18.004 16.691-6.8594 4.2422-13.133 10.586-20.902 13.523 6.4688-20.512 42.453-36.852 50.559-85.66zm2.8555-122c-4.4648 13.848-11.508 26.742-14.086 41.289-1.5391 8.6953-2.4102 16.508-2.2266 25.414 0.15234 7.7305 2.8984 17.824 2.1133 24.895-5.9219-15.484-8.5547-33.742-5.0977-50.363 2.5078-12.07 11.199-32.328 19.309-41.25zm-55.977 250.29c3.8086 4.2969 6.4258 19.125 21.703 35.535 10.516 11.301 31.77 45.254 37.578 59.953-2.3945-1.4414-15.906-16.102-19.184-19.488-6.5234-6.75-12.629-12.867-18.145-20.734-9.0039-12.84-20.582-39.625-21.953-55.277zm65.008-232.98c-1.2188 11.984-6.5117 25.973-1.5 38.602 3.3047 8.3047 12.238 18.371 17.559 25.551 6.3555 8.582 11.508 18.105 15.625 27.5 14.465 32.945 12.629 70.93-11.789 98.207-15.668 17.488-27.68 34.43-27.203 59.996-4.2148-17.012 3.9492-42.898 12.742-57.656 8.6406-14.504 20.805-33.562 22.445-50.895-3.1641 3.5-3.4883 8.4414-5.2656 13.457-11.367 32.008-38.32 52.535-31.91 97.574 2.2969 16.145 15.445 37.637 21.438 53.219 7.1836 18.691 6.9883 46.934 0.37891 66.086-6.0078-17.867-7.2383-30.031-18.273-51.301-8.0078-15.43-17.836-30.34-24.012-46.457-13.762-35.898 7.043-81.098 14.91-116.74 18.48-83.742-3.0117-77.273-3.668-121.42-0.47656-31.84 30.691-89.219 31.824-108.62 7.9805 52.898-28.34 71.07-20.289 110.68 2.5352 12.434 16.242 33.141 22.57 45.758 12 23.93 11.734 29.949 11.469 56.805 5.8398-6.1758 1.2031-30.957-1.7344-39.191-10.18-28.52-26.688-48.332-30.02-62.559-2.6758-11.398-0.25391-28.352 4.6758-38.602zm28.66 308.02c7.8672 7.1133 11.047 26.66 8.9062 37.242-2.4219 11.93-5.3477 23.102-12.84 32.805 1.0938-5.2773 7.7695-17.781 9.6328-33.672 0.78516-6.7344-0.39062-13.02-1.3984-19.629-0.96484-6.3164-3.5156-11.523-4.2969-16.73zm-29.164-291.03c10.359 33.113 11.383 21.465 26.055 46.105 13.762 23.117 26.797 55.699 20.301 83.254-2.7148 11.539-5.543 16.074-9.4492 26.352-5.1523 13.539-12.277 20.273-22.57 31.082-2.4492 2.5781-2.1016 3.3594-3.9609 5.5156-1.4141 1.625-2.4492 1.8359-3.9609 3.7656 8.6094-17.977 15.961-15.879 27.848-40.855 8.8203-18.551 10.629-38.883 7.1953-59.324-3.1367-18.762-11.09-32.219-21.309-48.094-12.531-19.449-22.148-20.469-20.148-47.785zm16.59-47.578c-3.1797 1.332-1.332-0.30859-3.4023 4.0586-1.4297 3.0117-0.95313 2.6602-3.1094 4.6758 2.9258-14.465 7.5195-18.047 7.1133-34.879-0.25391-10.332-2.7305-31.223 1.3164-40.016 5.4062 21.914 8.1914 43.711 2.9805 65.918-1.4414 6.1172-4.7031 13.652-5.6406 19.422-6.9297 42.578 18.566 40.141 28.492 69.645-4.8867-3.8789-27.316-29.922-30.312-35.691-6.3281-12.223-3.9062-14.098-1.9023-27.051 1.0352-6.6914 7.6719-20.652 4.4648-26.07zm-9.8711 23.633c-1.0508 14.504-7.5039 21.004 2.5078 36.434 6.3281 9.7578 13.777 16.676 20.555 25.691 19.824 26.395 31.742 71.617 20.527 105.77-13.355 40.688-36.602 43.207-47.145 68.508-1.9727 4.7188-3.6133 14.574-5.1523 17.234-0.91016-24.391 18.441-39.496 31.922-56.762 12.418-15.906 22.934-48.094 19.758-68.328-8.625-54.816-35.648-75.16-43.207-91.457-3.6133-7.7852-3.8086-9.6484-3.4453-18.551 0.64453-15.781 2.3945-12.547 3.6836-18.523zm51.973 241.14c-2.8281 55.293 5.5742 55.516 7.2266 93.738 1.0508 24.168-5.3203 63.512-34.445 67.039 16.789-31.586 25.09-40.07 18.258-78.086-3.207-17.852-4.7734-26.141-3.7656-44.652 0.50391-9.0586 6.6094-32.062 12.715-38.027zm-26.562-282.31c4.6055 52.504 36.727 66.41 32.945 108.89-3.3164-3.2617-5.6719-8.5117-8.9453-12-13.723-14.645-43.223-19.363-32.246-64.66 1.7227-7.0859 5.543-26.926 8.2461-32.23zm14.395 378.67c-4.0195-13.148-9.3398-26.266-13.148-39.316-12.922-44.398-1.1484-45.66 18.566-76.125 8.7383-13.512 11.426-21.254 16.941-35.297-0.19531 31.684-16.129 47.969-22.625 70.664-13.316 46.527 4.2578 58.262 0.26562 80.074zm-5.9375-286.54c20.609 11.691 22.891 26.336 30.93 47.043-9.5508-2.1562-12.699-15.008-17.039-22.781-3.8359-6.875-11.34-17.711-13.902-24.266zm26.91 170.91c2.4219 32.121 1.5977 19.293 7.1562 47.578 4.7461 24.125 13.426 72.809 5.6836 95.531-3.2344 9.5078-17.852 24.348-26.211 28.004 6.5664-13.777 11.941-20.219 14.324-36.727 2.3672-16.422-0.21094-30.074-3.0664-46.035-3.0117-16.801-6.75-52.688-2.8555-69.266l4.9688-19.082zm5.4453-120.2c-0.69922 3.8789-1.625 8.6406-3.7383 11.41l-3.2617-13.328 6.9883 1.918zm2.9258 5.6406c3.2617 14.297 3.7539 14.141 2.4102 29.656-0.64453 7.4219-1.3594 20.359-4.7734 26.562-0.42188-13.68-6.5508-46.414 2.3672-56.23zm-38.797-149.41c16.188 46.555 51.566 60.754 48.164 97.449-0.48828 5.2773-7.0859 36.348-8.7383 39.793-7.8398-7.9961-7.0156-27.246-7.7422-37.691-2.9258-41.988-35.969-61.703-31.684-99.535zm42.664 144.75c24.207 7.293 13.051 20.625 4.3281 50.602-1.5273 5.2656-2.7578 16.383-4.7344 20.246-2.1836-4.5078 2.4375-26.562 3.0234-34.066 1.2305-15.668-1.5117-22.43-2.6172-36.77zm-3.3477 73.535c3.375 11.215 2.0703 13.273 3.0117 24.406 1.4141 16.969 3.1094 29.879 6.8047 46.863 5.1094 23.48 13.246 30.676 11.973 67.5-0.39062 11.102-4.5078 34.039-12.645 41.262 2.8008-71.352-15.641-97.758-15.094-135.94 0.11328-8.2188 2.6172-38.211 5.9648-44.078zm-35.492-218.91c21.574 28.633 27.918 28.281 45.98 62.461 6.4414 12.18 10.922 26.293 13.469 40.172 2.5469 13.875-6.8047 29.348-18.973 34.512 1.0938-13.664 6.9297-25.973 7.3086-41.219 1.0352-42.691-42.898-61.859-47.773-95.922zm40.883 142.16c1.4297-1.9023 15.766-8.625 20.414-21.477 0.6875 9.4219-0.53125 25.23-3.6836 34.051-12.574-13.68-8.3438-6.3164-16.73-12.586zm6.3008-85.016c12.293 9.8164 18.145 13.723 23.773 29.727 5.8945 16.758 5.293 30.578 3.5703 47.969-1.2617 12.824-7.3633 29.277-12.418 41.164-2.7852 6.5508-4.3555 13.777-6.875 20.5-29.094 78 17.992 94.496 11.23 156.12-1.1328 10.348-4.8008 34.008-12.336 40.91 1.457-13.23 8.6406-18.762 6.6797-45.363-3.6133-48.934-25.176-76.352-18.621-130.13 3.6953-30.367 20.062-56.973 21.801-78.98 1.3711-17.348 1.3438-29.836-1.6094-46.988-2.2109-12.867-12.434-24.559-15.191-34.934zm-58.902 300.53c-2.7305-2.3789-18.648-29.809-21.688-35.074-8.1641-14.168-8.4414-29.977-1.3164-44.75 5.8398-12.125 16.773-21.238 26.156-30.594 9.1836-9.1445 16.453-24.992 20.457-37.371 10.613-32.82 0.96484-61.523-12.727-91.176-7.125-15.43-13.426-20.848-23.438-33.309-9.7578-12.152-14.52-28.898-6.3438-43.391-1.6523 16.34-5.7695 25.945 6.707 39.82 7.5039 8.332 18.188 17.938 24.238 27.332 15.445 23.969 20.219 54.691 18.973 83.098 1.4297-1.8203 1.918 0.11328 2.1289-9.1016 0.085938-3.6562-0.054687-6.875-0.32031-10.516-0.43359-6.1484-1.3711-12.797-2.3398-18.902-2.1133-13.328-5.4727-21.703-8.5977-33.828 6.5938 6.8477 14.379 29.289 15.793 39.133 1.2305 8.6094 1.0625 16.383 2.2969 25.246 1.1758 8.457 1.75 18.312 0.71484 26.785-3.9609 32.23-20.062 49.648-36.77 74.754-18.609 27.977-0.33594 59.141 8.1484 87.129 9.5508 31.531-3.4453 58.23-29.039 75.074 6.1758 7.4336 30.902-0.19531 39.414-3.8906 37.93-16.41 62.754-48.836 64.352-90.73 1.5977-41.906-18.004-64.602-21.113-82.414-9.0312-51.848 35.41-100.28 25.664-176-4.0039-31.109-22.543-42.578-38.688-65.332-3.6133-5.0977-8.5391-8.7773-12.152-13.078-3.3164-3.9609-7.7695-11.648-9.9414-16.395-5.6719-12.348-6.832-23.383-15.543-35.926-13.176-18.984-24.07-20.555-27.836-49.887-0.6875-5.3203 0.71484-20.961-2.5352-23.215-3.9219 6.0898-1.7773 32.945-0.86719 41.121 1.9609 17.699 1.3984 23.129-1.7344 40.535-10.082 55.895-53.316 78.926-40.855 137.8 2.6055 12.309 8.1211 24.027 8.625 36.738 0.69922 17.488-14.059 49.578-29.18 62.504-10.543 9.0039-12.434 17.516-15.848 30.355-9.8867 37.285 4.4961 73.984 25.035 104.54 6.2148 9.2422 14.801 15.68 22.527 23.73 17.488 18.188 27.344 37.02 28.465 62.809 9.4922-2.4648 10.348-47.281 9.8555-53.75-1.7656-23.746-12.797-34.949-16.031-47.508 9.8438 10.402 19.742 38.379 20.344 52.77 1.3008 30.551-12.785 54.086-10.863 59.953 5.25-0.58984 17.797-17.809 20.625-24.742 20.387-49.773-9.3516-66.379-24.07-99.898-14.465-32.961 18.609-51.258 33.672-73.395 9.8281-14.434 17.516-35.395 17.77-52.801l-2.2539 6.3555c-5.5742 37.105-20.344 48.711-41.891 73.66-10.922 12.645-17.348 28.898-9.7031 45.449 5.8945 12.742 20.301 31.559 21.73 40.254z" fill-rule="evenodd"/>
  <use x="254.417969" y="581.003906" xlink:href="#w"/>
  <use x="259.558594" y="581.003906" xlink:href="#d"/>
  <use x="263.007812" y="581.003906" xlink:href="#a"/>
  <use x="267.757812" y="581.003906" xlink:href="#b"/>
  <use x="272.480469" y="581.003906" xlink:href="#c"/>
  <use x="275.828125" y="581.003906" xlink:href="#a"/>
  <use x="280.578125" y="581.003906" xlink:href="#m"/>
  <use x="288.023438" y="581.003906" xlink:href="#l"/>
  <use x="293.035156" y="581.003906" xlink:href="#k"/>
  <use x="300.035156" y="581.003906" xlink:href="#f"/>
  <use x="305.453125" y="581.003906" xlink:href="#b"/>
  <use x="310.179688" y="581.003906" xlink:href="#j"/>
  <use x="312.578125" y="581.003906" xlink:href="#a"/>
  <use x="317.328125" y="581.003906" xlink:href="#d"/>
  <use x="320.777344" y="581.003906" xlink:href="#i"/>
  <use x="323.179688" y="581.003906" xlink:href="#i"/>
  <use x="325.578125" y="581.003906" xlink:href="#b"/>
  <use x="332.738281" y="581.003906" xlink:href="#f"/>
  <use x="338.15625" y="581.003906" xlink:href="#j"/>
  <use x="340.558594" y="581.003906" xlink:href="#b"/>
  <use x="345.28125" y="581.003906" xlink:href="#h"/>
  <use x="349.449219" y="581.003906" xlink:href="#e"/>
  <use x="354.257812" y="581.003906" xlink:href="#g"/>
  <use x="358.820313" y="581.003906" xlink:href="#c"/>
  <use x="362.167969" y="581.003906" xlink:href="#h"/>
  <use x="366.335938" y="581.003906" xlink:href="#a"/>
  <use x="371.082031" y="581.003906" xlink:href="#g"/>
  <use x="375.644531" y="581.003906" xlink:href="#b"/>
  <use x="254.417969" y="588.003906" xlink:href="#v"/>
  <use x="257.464844" y="588.003906" xlink:href="#d"/>
  <use x="260.917969" y="588.003906" xlink:href="#e"/>
  <use x="265.726562" y="588.003906" xlink:href="#u"/>
  <use x="275.460938" y="588.003906" xlink:href="#c"/>
  <use x="278.804688" y="588.003906" xlink:href="#t"/>
  <use x="283.789062" y="588.003906" xlink:href="#a"/>
  <use x="290.976562" y="588.003906" xlink:href="#s"/>
  <use x="296.832031" y="588.003906" xlink:href="#e"/>
  <use x="301.644531" y="588.003906" xlink:href="#r"/>
  <use x="306.628906" y="588.003906" xlink:href="#q"/>
  <use x="314.046875" y="588.003906" xlink:href="#p"/>
  <use x="319.179688" y="588.003906" xlink:href="#d"/>
  <use x="322.632812" y="588.003906" xlink:href="#e"/>
  <use x="327.441406" y="588.003906" xlink:href="#o"/>
  <use x="329.839844" y="588.003906" xlink:href="#a"/>
  <use x="334.589844" y="588.003906" xlink:href="#n"/>
  <use x="338.738281" y="588.003906" xlink:href="#c"/>
 </g>
</svg>
