<?xml version="1.0" encoding="UTF-8"?>
<svg width="700pt" height="700pt" version="1.1" viewBox="0 0 700 700" xmlns="http://www.w3.org/2000/svg">
 <g fill-rule="evenodd">
  <path d="m516.12 96.578c24.023-6.9688 29.07 36.758 6.9688 24.746-10.57-5.7656-16.336-20.18-6.9688-24.746zm-50.211 126.37c-55.734 13.934-28.348-75.914-76.637-84.566-27.387-5.0469-32.434 24.266-25.465 45.406 8.4102 24.984 14.895 49.488-14.176 55.496-23.062-1.9219-14.656-12.973-24.023-24.504-7.6875 12.492-0.72266 26.668 10.57 33.152 29.789 9.1289 42.762-6.9688 44.445-36.996 1.9219-34.113-23.305-38.68-3.125-62.223 45.406-16.816 26.188 83.844 75.434 85.766 95.617 4.0859-84.086-172.01 64.145-202.52 53.332-11.051 66.066 36.277 84.805 75.195 53.094 111.23-88.648 136.21-117.96 6.7266-5.5273-24.023 0.72266-44.684 25.465-53.574 30.512-11.051 37.238 5.7656 48.527 28.828 7.207 14.414 24.504 43.965 21.621 59.578-3.6055 20.422-42.762 17.777-46.367-5.5273 11.531 9.8516 20.18 5.7656 20.902-3.125-4.8047-26.668-21.863-67.988-43.484-53.574-34.355 20.902 35.555 121.56 73.273 77.836 19.699-21.383-23.543-103.79-45.164-114.11-38.918-18.738-81.922 28.348-60.301 81.441 60.539 149.67 175.62 68.707 135.5-20.18-17.059-37.957-32.914-89.852-79.039-91.051-37.477-0.96094-92.734 33.633-93.215 74.715-0.48047 43.723 53.812 107.15 24.266 127.81z"/>
  <path d="m259.79 97.059c5.5273-0.96094 14.414 3.6055 14.895 19.219 0.48047 12.492-11.051 16.578-16.816-3.3633-2.8828-10.332-2.4023-16.098 1.9219-15.855zm-51.172 462.7c0.96094-29.789-53.332-45.887-7.4492-126.85 22.102-38.918 50.449-58.137 70.629-102.58 50.211-109.79-98.258-135.98-88.168-239.52 11.051-113.39 146.79-106.19 156.16 22.102 11.773 164.57-181.38-2.6445-96.098-67.508 43.723-6.2461 82.645 80.723 67.746 101.62-10.332 12.734-19.461 5.5273-34.113-4.3242 1.2031-14.656 14.656-18.258 4.0859-40.84-6.2461-13.453-19.941-20.902-30.992-14.895-43.484 51.172 115.07 134.29 60.059 6.2461-41.32-95.855-107.39-65.586-95.375 13.215 7.207 47.566 85.766 126.61 121.8 66.066 43.723-73.512-31.953-227.75-128.77-153.27-24.504 18.98-33.633 48.527-35.316 79.758-4.0859 83.125 61.5 94.414 85.766 144.86 34.836 72.312-11.293 107.39-48.289 156.64-31.953 42.523-62.703 125.89-1.9219 158.8z"/>
  <path d="m171.14 295.73c-13.453 3.3633-14.414 1.4414-16.336-6.4883 1.4414-8.168 4.3242-10.57 12.973-9.8516 5.7656 0.72266 11.051 4.8047 3.6055 16.336zm54.535 14.176c7.4492-61.02-58.379-93.934-102.58-49.73-19.941 19.941-16.336 48.527 6.4883 64.383 16.578 11.531 50.93-1.6836 63.422-14.895 14.414-36.035-26.906-59.578-49.488-30.512-21.141 39.398 19.461 30.75 40.602 21.621-6.7266 16.578-33.152 24.023-49.488 17.539-24.746-13.934-25.945-45.164 6.7266-60.781 28.348-13.453 45.164-9.1289 65.105 14.656 45.645 55.016-57.176 88.41-94.414 73.992-48.527-34.113-20.422-111.95 32.914-121.56 93.453-17.059 96.578 49.25 88.168 92.734-14.176 63.184-55.496 69.43-65.105 112.67 14.895-6.4883 72.312-83.125 81.684-121.8 17.059-69.43-45.406-106.19-108.35-91.531-55.016 12.734-82.645 74.715-49.488 124.68 17.297 26.426 52.371 19.699 78.078 12.973 24.746-6.4883 48.047-17.059 55.734-44.445z"/>
  <path d="m381.83 329.37c4.0859 0.96094 5.0469 5.2852 4.5664 7.207-1.4414 5.5273-7.207 6.0078-9.8516-0.48047-1.9219-4.5664 2.1641-7.9297 5.2852-6.7266zm-64.863-11.531c-9.6094 44.445 24.504 64.863 65.586 57.418 38.918-7.207 49.25-54.055 22.102-75.434-23.062-16.578-74.234-5.5273-59.34 38.918 12.254 20.66 50.211 22.824 51.172-4.8047 0.48047-12.254-7.4492-19.699-19.699-15.137-16.098 6.2461-3.6055 27.148-19.461 19.219-15.375-25.707 16.098-43.242 39.879-30.512 18.738 15.137 17.539 43.242-4.0859 53.574-19.941 9.6094-49.008 7.207-62.461-11.531-22.582-31.711 21.141-96.098 80.48-80.961 42.762 11.051 35.797 88.648 0.96094 115.32-50.211 37.238-146.55 5.5273-104.75-65.586 17.059-33.875 13.215-47.566-8.8906-89.371-9.1289-16.098-7.4492-15.855-19.219-9.8516 0.24219 6.7266 22.824 35.797 24.984 62.223 2.4023 32.434-19.699 49.488-19.699 73.754 0.24219 42.043 84.805 64.145 123.96 41.801 41.801-23.785 58.617-94.414 20.902-129.73-18.5-17.059-49.008-11.773-72.551-0.48047-25.945 20.66-29.07 23.305-39.879 50.93z"/>
  <path d="m288.14 471.11c13.934 0.24219 15.375 14.656 10.332 23.062-1.9219 4.5664-14.656 10.332-19.699 2.6445-5.2852-10.09-8.8906-23.785 9.3711-25.465zm-69.91 60.059c9.1289-19.461-21.383-85.766 34.594-116.52 38.918-21.383 95.617 10.09 102.58 50.211 8.168 45.887-23.305 90.57-73.031 77.355-33.633-8.8906-49.25-84.086-10.812-105.95 61.02-11.293 60.301 95.137 16.816 75.676 8.8906-12.012 36.277-17.539 13.934-43.484-17.059-19.941-40.359-3.125-34.113 25.227 11.773 53.574 65.105 32.672 61.02-14.895-2.6445-31.473-48.289-76.156-76.875-40.121-20.66 25.945-16.336 85.527 11.773 105.23 68.227 48.047 149.91-68.707 65.105-131.17-30.512-22.582-77.355-20.66-101.38 9.6094-19.461 24.746-33.875 86.008-9.3711 108.59z"/>
 </g>
</svg>
