<?xml version="1.0" encoding="UTF-8"?>
<svg width="700pt" height="700pt" version="1.1" viewBox="0 0 700 700" xmlns="http://www.w3.org/2000/svg" xmlns:xlink="http://www.w3.org/1999/xlink">
 <defs>
  <symbol id="w" overflow="visible">
   <path d="m20.578-1.2344c-1.0625 0.55469-2.168 0.96875-3.3125 1.25-1.1484 0.28125-2.3438 0.42188-3.5938 0.42188-3.7422 0-6.6992-1.0391-8.875-3.125-2.1797-2.082-3.2656-4.9102-3.2656-8.4844 0-3.582 1.0859-6.4141 3.2656-8.5 2.1758-2.082 5.1328-3.125 8.875-3.125 1.25 0 2.4453 0.14062 3.5938 0.42188 1.1445 0.28125 2.25 0.69531 3.3125 1.2344v4.6406c-1.0742-0.72656-2.1328-1.2578-3.1719-1.5938-1.0312-0.34375-2.125-0.51562-3.2812-0.51562-2.0547 0-3.6719 0.66406-4.8594 1.9844-1.1797 1.3125-1.7656 3.1328-1.7656 5.4531 0 2.3125 0.58594 4.1328 1.7656 5.4531 1.1875 1.3125 2.8047 1.9688 4.8594 1.9688 1.1562 0 2.25-0.16406 3.2812-0.5 1.0391-0.34375 2.0977-0.87891 3.1719-1.6094z"/>
  </symbol>
  <symbol id="d" overflow="visible">
   <path d="m15.062-12.219c-0.46875-0.21875-0.9375-0.37891-1.4062-0.48438-0.46875-0.11328-0.9375-0.17188-1.4062-0.17188-1.375 0-2.4375 0.44531-3.1875 1.3281-0.74219 0.88672-1.1094 2.1562-1.1094 3.8125v7.7344h-5.375v-16.797h5.375v2.75c0.6875-1.0938 1.4766-1.8906 2.375-2.3906 0.89453-0.50781 1.9688-0.76562 3.2188-0.76562 0.17578 0 0.36719 0.011719 0.57812 0.03125 0.20703 0.011719 0.51562 0.042969 0.92188 0.09375z"/>
  </symbol>
  <symbol id="a" overflow="visible">
   <path d="m19.344-8.4375v1.5156h-12.547c0.125 1.2617 0.57812 2.2109 1.3594 2.8438 0.78125 0.625 1.8672 0.9375 3.2656 0.9375 1.1328 0 2.2891-0.16406 3.4688-0.5 1.1875-0.33203 2.4062-0.83594 3.6562-1.5156v4.1406c-1.2617 0.48047-2.5273 0.83984-3.7969 1.0781-1.2734 0.25-2.543 0.375-3.8125 0.375-3.043 0-5.4062-0.76953-7.0938-2.3125-1.6875-1.5508-2.5312-3.7227-2.5312-6.5156 0-2.7383 0.82812-4.8906 2.4844-6.4531 1.6562-1.5703 3.9375-2.3594 6.8438-2.3594 2.6328 0 4.7422 0.79688 6.3281 2.3906 1.582 1.5859 2.375 3.7109 2.375 6.375zm-5.5156-1.7969c0-1.0195-0.29688-1.8438-0.89062-2.4688s-1.3711-0.9375-2.3281-0.9375c-1.043 0-1.8906 0.29688-2.5469 0.89062-0.64844 0.58594-1.0469 1.4219-1.2031 2.5156z"/>
  </symbol>
  <symbol id="b" overflow="visible">
   <path d="m10.109-7.5625c-1.125 0-1.9688 0.19531-2.5312 0.57812-0.5625 0.375-0.84375 0.93359-0.84375 1.6719 0 0.67969 0.22266 1.2109 0.67188 1.5938 0.45703 0.38672 1.0938 0.57812 1.9062 0.57812 1.0078 0 1.8594-0.35938 2.5469-1.0781 0.69531-0.72656 1.0469-1.6328 1.0469-2.7188v-0.625zm8.2031-2.0156v9.5781h-5.4062v-2.4844c-0.73047 1.0234-1.543 1.7656-2.4375 2.2344-0.89844 0.45703-1.9922 0.6875-3.2812 0.6875-1.7422 0-3.1562-0.50391-4.25-1.5156-1.0859-1.0195-1.625-2.3438-1.625-3.9688 0-1.9688 0.67578-3.4102 2.0312-4.3281 1.3633-0.91406 3.4922-1.375 6.3906-1.375h3.1719v-0.42188c0-0.85156-0.33984-1.4766-1.0156-1.875-0.66797-0.39453-1.7109-0.59375-3.125-0.59375-1.1562 0-2.2305 0.12109-3.2188 0.35938-0.99219 0.23047-1.9062 0.57422-2.75 1.0312v-4.0938c1.1445-0.28125 2.2969-0.49219 3.4531-0.64062 1.1641-0.14453 2.3281-0.21875 3.4844-0.21875 3.0312 0 5.2188 0.60156 6.5625 1.7969 1.3438 1.1875 2.0156 3.1328 2.0156 5.8281z"/>
  </symbol>
  <symbol id="c" overflow="visible">
   <path d="m8.4375-21.562v4.7656h5.5469v3.8438h-5.5469v7.125c0 0.77344 0.15625 1.2969 0.46875 1.5781 0.3125 0.27344 0.92578 0.40625 1.8438 0.40625h2.7656v3.8438h-4.6094c-2.1172 0-3.6172-0.44141-4.5-1.3281-0.88672-0.88281-1.3281-2.3828-1.3281-4.5v-7.125h-2.6719v-3.8438h2.6719v-4.7656z"/>
  </symbol>
  <symbol id="m" overflow="visible">
   <path d="m14.016-14.344v-9h5.3906v23.344h-5.3906v-2.4375c-0.74219 1-1.5586 1.7305-2.4531 2.1875-0.88672 0.45703-1.918 0.6875-3.0938 0.6875-2.0625 0-3.7617-0.82031-5.0938-2.4688-1.3359-1.6445-2-3.7656-2-6.3594 0-2.582 0.66406-4.6953 2-6.3438 1.332-1.6445 3.0312-2.4688 5.0938-2.4688 1.1641 0 2.1953 0.23438 3.0938 0.70312 0.89453 0.46094 1.7109 1.1797 2.4531 2.1562zm-3.5469 10.875c1.1445 0 2.0195-0.41406 2.625-1.25 0.61328-0.84375 0.92188-2.0664 0.92188-3.6719 0-1.5938-0.30859-2.8047-0.92188-3.6406-0.60547-0.84375-1.4805-1.2656-2.625-1.2656-1.1367 0-2.0117 0.42188-2.625 1.2656-0.60547 0.83594-0.90625 2.0469-0.90625 3.6406 0 1.6055 0.30078 2.8281 0.90625 3.6719 0.61328 0.83594 1.4883 1.25 2.625 1.25z"/>
  </symbol>
  <symbol id="l" overflow="visible">
   <path d="m11.516-3.4688c1.1562 0 2.0352-0.41406 2.6406-1.25 0.60156-0.84375 0.90625-2.0664 0.90625-3.6719 0-1.5938-0.30469-2.8047-0.90625-3.6406-0.60547-0.84375-1.4844-1.2656-2.6406-1.2656-1.1484 0-2.0273 0.42188-2.6406 1.2656-0.61719 0.84375-0.92188 2.0586-0.92188 3.6406 0 1.5938 0.30469 2.8125 0.92188 3.6562 0.61328 0.84375 1.4922 1.2656 2.6406 1.2656zm-3.5625-10.875c0.73828-0.97656 1.5547-1.6953 2.4531-2.1562 0.90625-0.46875 1.9414-0.70312 3.1094-0.70312 2.0703 0 3.7695 0.82422 5.0938 2.4688 1.332 1.6484 2 3.7617 2 6.3438 0 2.5938-0.66797 4.7148-2 6.3594-1.3242 1.6484-3.0234 2.4688-5.0938 2.4688-1.168 0-2.2031-0.23047-3.1094-0.6875-0.89844-0.46875-1.7148-1.1953-2.4531-2.1875v2.4375h-5.375v-23.344h5.375z"/>
  </symbol>
  <symbol id="k" overflow="visible">
   <path d="m0.375-16.797h5.375l4.5156 11.391 3.8281-11.391h5.375l-7.0625 18.391c-0.71094 1.8633-1.5391 3.1641-2.4844 3.9062-0.94922 0.75-2.1953 1.125-3.7344 1.125h-3.1094v-3.5156h1.6719c0.91406 0 1.5781-0.14844 1.9844-0.4375 0.41406-0.29297 0.73828-0.8125 0.96875-1.5625l0.15625-0.46875z"/>
  </symbol>
  <symbol id="f" overflow="visible">
   <path d="m0.15625-22.391h5.7969l5.9375 16.531 5.9219-16.531h5.8125l-8.2969 22.391h-6.8906z"/>
  </symbol>
  <symbol id="j" overflow="visible">
   <path d="m2.5781-23.344h5.375v23.344h-5.375z"/>
  </symbol>
  <symbol id="i" overflow="visible">
   <path d="m2.5781-16.797h5.375v16.797h-5.375zm0-6.5469h5.375v4.3906h-5.375z"/>
  </symbol>
  <symbol id="h" overflow="visible">
   <path d="m15.703-16.281v4.0938c-1.1484-0.48828-2.2578-0.85156-3.3281-1.0938-1.0742-0.23828-2.0859-0.35938-3.0312-0.35938-1.0234 0-1.7812 0.13281-2.2812 0.39062-0.49219 0.25-0.73438 0.64062-0.73438 1.1719 0 0.4375 0.1875 0.77344 0.5625 1 0.375 0.23047 1.0469 0.39844 2.0156 0.5l0.95312 0.14062c2.75 0.34375 4.5977 0.91797 5.5469 1.7188 0.94531 0.80469 1.4219 2.0586 1.4219 3.7656 0 1.793-0.66406 3.1406-1.9844 4.0469-1.3125 0.89844-3.2812 1.3438-5.9062 1.3438-1.1055 0-2.25-0.089844-3.4375-0.26562-1.1875-0.17578-2.4062-0.4375-3.6562-0.78125v-4.0781c1.0703 0.51172 2.1719 0.89844 3.2969 1.1562 1.125 0.26172 2.2656 0.39062 3.4219 0.39062 1.0508 0 1.8438-0.14062 2.375-0.42188 0.53125-0.28906 0.79688-0.72266 0.79688-1.2969 0-0.47656-0.18359-0.83203-0.54688-1.0625-0.36719-0.23828-1.0938-0.42578-2.1875-0.5625l-0.95312-0.10938c-2.3867-0.30078-4.0586-0.85938-5.0156-1.6719-0.96094-0.8125-1.4375-2.0391-1.4375-3.6875 0-1.7812 0.60938-3.0977 1.8281-3.9531 1.2188-0.86328 3.0859-1.2969 5.6094-1.2969 0.98828 0 2.0234 0.078125 3.1094 0.23438 1.0938 0.14844 2.2812 0.375 3.5625 0.6875z"/>
  </symbol>
  <symbol id="e" overflow="visible">
   <path d="m10.578-13.359c-1.1875 0-2.0938 0.42969-2.7188 1.2812-0.625 0.85547-0.9375 2.0859-0.9375 3.6875 0 1.6172 0.3125 2.8516 0.9375 3.7031 0.625 0.85547 1.5312 1.2812 2.7188 1.2812 1.1641 0 2.0547-0.42578 2.6719-1.2812 0.625-0.85156 0.9375-2.0859 0.9375-3.7031 0-1.6016-0.3125-2.832-0.9375-3.6875-0.61719-0.85156-1.5078-1.2812-2.6719-1.2812zm0-3.8438c2.8828 0 5.1406 0.78125 6.7656 2.3438 1.625 1.5547 2.4375 3.7109 2.4375 6.4688 0 2.7617-0.8125 4.9219-2.4375 6.4844s-3.8828 2.3438-6.7656 2.3438c-2.9062 0-5.1797-0.78125-6.8125-2.3438-1.6367-1.5625-2.4531-3.7227-2.4531-6.4844 0-2.7578 0.81641-4.9141 2.4531-6.4688 1.6328-1.5625 3.9062-2.3438 6.8125-2.3438z"/>
  </symbol>
  <symbol id="g" overflow="visible">
   <path d="m0.46875-16.797h5.3594l4.1875 11.609 4.1719-11.609h5.3906l-6.625 16.797h-5.8906z"/>
  </symbol>
  <symbol id="v" overflow="visible">
   <path d="m13.641-23.344v3.5312h-2.9688c-0.76172 0-1.293 0.14062-1.5938 0.42188-0.30469 0.27344-0.45312 0.74609-0.45312 1.4219v1.1719h4.5938v3.8438h-4.5938v12.953h-5.375v-12.953h-2.6719v-3.8438h2.6719v-1.1719c0-1.832 0.50781-3.1875 1.5312-4.0625 1.0195-0.875 2.6016-1.3125 4.75-1.3125z"/>
  </symbol>
  <symbol id="u" overflow="visible">
   <path d="m18.156-14.016c0.67578-1.0312 1.4766-1.8164 2.4062-2.3594 0.9375-0.55078 1.9688-0.82812 3.0938-0.82812 1.9258 0 3.3945 0.59375 4.4062 1.7812 1.0078 1.1875 1.5156 2.918 1.5156 5.1875v10.234h-5.4062v-8.7656c0.007813-0.125 0.015625-0.25391 0.015625-0.39062 0.007812-0.14453 0.015625-0.34766 0.015625-0.60938 0-1.1875-0.17969-2.0469-0.53125-2.5781-0.34375-0.53906-0.90625-0.8125-1.6875-0.8125-1.0234 0-1.8086 0.42188-2.3594 1.2656-0.55469 0.83594-0.83984 2.0469-0.85938 3.6406v8.25h-5.4062v-8.7656c0-1.8516-0.16406-3.0469-0.48438-3.5781-0.3125-0.53906-0.88281-0.8125-1.7031-0.8125-1.0312 0-1.8281 0.42188-2.3906 1.2656-0.55469 0.84375-0.82812 2.0547-0.82812 3.625v8.2656h-5.4062v-16.797h5.4062v2.4531c0.65625-0.94531 1.4102-1.6602 2.2656-2.1406 0.85156-0.47656 1.7969-0.71875 2.8281-0.71875 1.1641 0 2.1914 0.28125 3.0781 0.84375 0.88281 0.55469 1.5625 1.3359 2.0312 2.3438z"/>
  </symbol>
  <symbol id="t" overflow="visible">
   <path d="m19.469-10.234v10.234h-5.4062v-7.7969c0-1.4688-0.03125-2.4766-0.09375-3.0312-0.0625-0.55078-0.17188-0.95703-0.32812-1.2188-0.21875-0.34375-0.51172-0.61328-0.875-0.8125-0.35547-0.19531-0.76172-0.29688-1.2188-0.29688-1.1172 0-1.9961 0.43359-2.6406 1.2969-0.63672 0.86719-0.95312 2.0625-0.95312 3.5938v8.2656h-5.375v-23.344h5.375v9c0.8125-0.97656 1.6719-1.6953 2.5781-2.1562 0.90625-0.46875 1.9102-0.70312 3.0156-0.70312 1.9375 0 3.4062 0.59375 4.4062 1.7812 1.0078 1.1875 1.5156 2.918 1.5156 5.1875z"/>
  </symbol>
  <symbol id="s" overflow="visible">
   <path d="m2.8125-22.391h6.4531l8.1562 15.359v-15.359h5.4688v22.391h-6.4531l-8.1406-15.359v15.359h-5.4844z"/>
  </symbol>
  <symbol id="r" overflow="visible">
   <path d="m2.4062-6.5469v-10.25h5.3906v1.6719c0 0.91797-0.007813 2.0625-0.015625 3.4375-0.011719 1.375-0.015625 2.293-0.015625 2.75 0 1.3438 0.035156 2.3203 0.10938 2.9219 0.070312 0.59375 0.19141 1.0273 0.35938 1.2969 0.21875 0.34375 0.50391 0.61719 0.85938 0.8125 0.35156 0.1875 0.75781 0.28125 1.2188 0.28125 1.125 0 2.0039-0.42578 2.6406-1.2812 0.64453-0.86328 0.96875-2.0625 0.96875-3.5938v-8.2969h5.375v16.797h-5.375v-2.4375c-0.8125 0.99219-1.6719 1.7188-2.5781 2.1875-0.90625 0.45703-1.9023 0.6875-2.9844 0.6875-1.9492 0-3.4297-0.59375-4.4375-1.7812-1.0117-1.1953-1.5156-2.9297-1.5156-5.2031z"/>
  </symbol>
  <symbol id="q" overflow="visible">
   <path d="m19.469-10.234v10.234h-5.4062v-7.8281c0-1.4453-0.03125-2.4453-0.09375-3-0.0625-0.55078-0.17188-0.95703-0.32812-1.2188-0.21875-0.34375-0.51172-0.61328-0.875-0.8125-0.35547-0.19531-0.76172-0.29688-1.2188-0.29688-1.1172 0-1.9961 0.43359-2.6406 1.2969-0.63672 0.86719-0.95312 2.0625-0.95312 3.5938v8.2656h-5.375v-16.797h5.375v2.4531c0.8125-0.97656 1.6719-1.6953 2.5781-2.1562 0.90625-0.46875 1.9102-0.70312 3.0156-0.70312 1.9375 0 3.4062 0.59375 4.4062 1.7812 1.0078 1.1875 1.5156 2.918 1.5156 5.1875z"/>
  </symbol>
  <symbol id="p" overflow="visible">
   <path d="m2.8125-22.391h9.5938c2.8438 0 5.0234 0.63672 6.5469 1.9062 1.5312 1.2617 2.2969 3.0586 2.2969 5.3906 0 2.3555-0.76562 4.168-2.2969 5.4375-1.5234 1.2617-3.7031 1.8906-6.5469 1.8906h-3.8125v7.7656h-5.7812zm5.7812 4.1875v6.25h3.2031c1.1133 0 1.9727-0.26953 2.5781-0.8125 0.61328-0.55078 0.92188-1.3281 0.92188-2.3281s-0.30859-1.7656-0.92188-2.2969c-0.60547-0.53906-1.4648-0.8125-2.5781-0.8125z"/>
  </symbol>
  <symbol id="o" overflow="visible">
   <path d="m2.5781-16.797h5.375v16.5c0 2.25-0.54297 3.9609-1.625 5.1406-1.0859 1.1875-2.6484 1.7812-4.6875 1.7812h-2.6562v-3.5156h0.92188c1.0195 0 1.7188-0.23438 2.0938-0.70312 0.38281-0.46094 0.57812-1.3594 0.57812-2.7031zm0-6.5469h5.375v4.3906h-5.375z"/>
  </symbol>
  <symbol id="n" overflow="visible">
   <path d="m16.156-16.281v4.3906c-0.73047-0.5-1.4648-0.86719-2.2031-1.1094-0.73047-0.23828-1.4922-0.35938-2.2812-0.35938-1.5 0-2.668 0.4375-3.5 1.3125-0.83594 0.875-1.25 2.0938-1.25 3.6562 0 1.5742 0.41406 2.7969 1.25 3.6719 0.83203 0.875 2 1.3125 3.5 1.3125 0.83203 0 1.625-0.125 2.375-0.375 0.75781-0.25 1.4609-0.61719 2.1094-1.1094v4.3906c-0.84375 0.3125-1.6992 0.54688-2.5625 0.70312-0.86719 0.15625-1.7305 0.23438-2.5938 0.23438-3.0312 0-5.4062-0.77344-7.125-2.3281-1.7109-1.5625-2.5625-3.7266-2.5625-6.5 0-2.7695 0.85156-4.9297 2.5625-6.4844 1.7188-1.5508 4.0938-2.3281 7.125-2.3281 0.875 0 1.7383 0.078125 2.5938 0.23438 0.85156 0.15625 1.707 0.38672 2.5625 0.6875z"/>
  </symbol>
 </defs>
 <g>
  <path d="m296.12 472.46c2.0898-5.0977-0.18359-34.156 0.61328-43.984 5.7734-71.504 39.562-141.84 18.121-209.85-7.4336-23.652-22.359-47.73-28.996-68.496 17.629 14.008 45.09 61 50.559 83.605 11.363 46.934-0.79688 68.742-13.332 111.43-31.453 107.32 34.031 121.08 33.109 214.76 18.551-10.812 9.0312-100.62 3.8711-121.88-13.086-53.75-24.266-57.746-1.8438-115.73 13.762-35.629 30.406-64.258 37.902-103.14 11.242-58.48 3.625-64.562-10.441-117.76l0.12109-0.49219c6.0195-6.9414 29.488 67.941 30.406 72.426 21.438 103.57-33.418 178.82-26.047 267.34 21.625 2.7656 88.152-123.78 96.875-147.86 12.902-35.691 15.91-63.52 23.406-100.01 12.656-61.309 31.328-79.613 33.109-90.117-31.516 22.055-43.125 141.72-57.191 181.84-11.242 32.066-64.746 133.61-91.531 149.95-5.0391-98.043 62.289-199.65 11.793-305.62-9.3359-19.535-28.012-46.133-32.191-56.641-3.3164-8.293-3.4414-19.105-8.7227-21.809-17.016 21.992 75.066 88.398 4.8516 234.23-18.305 38.086-35.445 76.789-25.309 119.79 8.4766 35.875 28.996 89.195 14.25 126.79-5.8984-13.453-6.1445-34.156-16.648-53.016-42.816-76.605-21.871-105.17-3.5-170.84 22.914-81.949-23.59-121.94-62.66-181.77-4.7305-7.25-7.4961-21.746-13.145-19.289-3.9297 8.6602 25.125 60.203 31.023 72.797 57.191 121.7-6.0195 167.64-3.7461 278.96-44.781-43.617-35.137-131.03-44.23-186.81-4.4844-27.461-11.609-63.152-27.031-86.617-10.199-15.543-45.645-53.383-63.09-51.109 1.7812 5.3438 26.785 18.922 33.48 24.758 71.074 62.105 47.18 155.54 65.852 237.18 4.3008 18.922 6.7578 23.223 15.543 40.543 4.793 9.5234 16.34 33.48 24.879 36.613z" fill-rule="evenodd"/>
  <path d="m307.06 547.22c0.36719-6.7578-18.43-20.824-30.469-33.727-105.66-112.66-35.262-239.58-95.094-339.1-5.0977-8.4766-8.1719-17.016-17.199-18.613 57.992 87.723 34.586 126.98 46.996 220.35 4.793 36.242 12.84 68.125 33.109 100.07 10.75 16.953 46.195 63.211 62.719 71.012z" fill-rule="evenodd"/>
  <path d="m360.2 223.67c6.082-1.9648 3.625-1.5977 7.9258-18.734 1.7812-7.8008 4.1172-16.219 4.793-24.203 1.4141-16.895-1.043-33.91-7.0664-49.758-5.1602-13.574-13.637-24.449-20.211-37.719-3.5-7.1875-6.7578-11.672-9.4609-19.41-2.457-7.0039-2.582-16.402-7.1875-21.379-13.023 24.141 60.816 82.07 36 148.97-8.4766-14.496-9.9531-25.922-22.238-43.492-10.012-14.375-17.816-27.949-26.477-43.062-17.387-30.406-21.684-63.336-8.6016-95.832 0.49219-1.168 1.9648-4.5469 2.2109-5.4688 1.9648-8.2305 0.61328-3.9297-0.42969-5.957-8.2305 8.6016-13.762 47.238-12.961 59.711 1.168 18.43 9.1523 38.211 18.922 54.242 11.734 19.168 34.031 51.234 40.789 69.355 5.4062 14.621 1.7812 20.395 3.9297 32.805z" fill-rule="evenodd"/>
  <path d="m408.85 493.9c24.695-33.848 21.684-30.102 51.48-61.676 52.34-55.531 64.012-140.61 70.828-213.29 1.043-10.996 8.1719-42.02 4.4844-49.023-8.1094 6.9414-9.3359 77.094-13.145 100.62-5.0977 31.207-13.145 60.879-23.465 90.305-8.7852 25.004-25.984 51.172-43.617 70.277-4.4219 4.8516-7.9844 10.934-12.039 15.051-24.141 24.203-11.305 9.0312-33.848 37.719-2.5195 5.5273-0.61328 3.9297-0.67578 10.074z" fill-rule="evenodd"/>
  <path d="m278.99 400.34c6.2656-10.383 16.34-81.887 16.219-97.488-0.18359-29.18-7.6797-65.484-21.5-91.41-11.98-22.484-30.531-50.371-38.027-73.902-4.1172-12.902-7.6172-33.234-9.2773-46.871-1.2891-10.934 4.7305-47.547 2.3359-51.047-13.516 13.82-3.1328 75.93 2.3359 96.629 6.5117 24.695 26.23 52.523 38.211 75.684 49.328 95.094 0.67578 171.76 9.6445 188.47z" fill-rule="evenodd"/>
  <path d="m412.29 379.21c9.1523-3.5 35.566-55.719 40.176-66.898 45.887-111 13.945-138.96 43.371-226.8 2.7031-7.9844 15.113-33.848 12.41-38.824-7.8633 5.0391-24.633 68.434-26.906 80.535-11.551 61.738 8.1094 83.914-32.129 183.92l-29.18 51.848c-3.3164 4.6055-9.9531 10.875-7.8008 16.219z" fill-rule="evenodd"/>
  <path d="m276.41 327.86c3.1328-5.2812-6.8203-21.684-9.2148-28.812-4.5469-13.27-5.4688-23.59-7.1875-37.289-4.9766-39.992-23.465-95.031-48.102-125.56-5.4062-6.6953-35.383-45.703-38.086-46.258-0.49219 7.8008 27.461 40.051 33.973 48.406 25.246 32.742 43.125 81.641 48.652 123.48 3.7461 28.32 2.0273 25.738 11.426 51.91l5.2227 12.285c2.582 2.7031 0.92188 1.043 3.3164 1.8438z" fill-rule="evenodd"/>
  <path d="m454.55 247.32c6.0195-7.5547 3.5625-20.762 2.5195-31.883-6.5117-70.398 23.773-107.93 32.496-149.95 2.9492-14.25 10.012-53.566 3.7461-65.547-3.9297 1.6602-3.3164 0.36719-2.2734 11.363 1.5977 16.34-1.7812 35.324-4.8516 50.988-9.582 49.266-36.43 68.066-33.109 151.49 0.36719 9.0898-2.457 26.844 1.4727 33.48z" fill-rule="evenodd"/>
  <path d="m434.59 305.12c8.9688-13.332 2.8867-99.703 1.1055-120.28-1.5352-17.629 3.7461-36 10.934-52.031 3.5-7.8008 6.3281-15.359 9.707-23.16 3.3789-7.8008 9.582-16.465 5.957-23.652-4.2383 5.3438-14.559 36-19.043 45.336-6.9414 14.375-13.27 36.121-12.348 52.031 2.582 45.09 7.4336 68.188 2.582 114.02-0.79688 7.6172 0.55469 6.6953 1.168 7.6797z" fill-rule="evenodd"/>
  <use x="156.433594" y="652.144531" xlink:href="#w"/>
  <use x="178.972656" y="652.144531" xlink:href="#d"/>
  <use x="194.121094" y="652.144531" xlink:href="#a"/>
  <use x="214.953125" y="652.144531" xlink:href="#b"/>
  <use x="235.679688" y="652.144531" xlink:href="#c"/>
  <use x="250.363281" y="652.144531" xlink:href="#a"/>
  <use x="271.195312" y="652.144531" xlink:href="#m"/>
  <use x="303.875" y="652.144531" xlink:href="#l"/>
  <use x="325.859375" y="652.144531" xlink:href="#k"/>
  <use x="356.578125" y="652.144531" xlink:href="#f"/>
  <use x="380.347656" y="652.144531" xlink:href="#b"/>
  <use x="401.074219" y="652.144531" xlink:href="#j"/>
  <use x="411.601562" y="652.144531" xlink:href="#a"/>
  <use x="432.433594" y="652.144531" xlink:href="#d"/>
  <use x="447.582031" y="652.144531" xlink:href="#i"/>
  <use x="458.109375" y="652.144531" xlink:href="#i"/>
  <use x="468.640625" y="652.144531" xlink:href="#b"/>
  <use x="500.058594" y="652.144531" xlink:href="#f"/>
  <use x="523.832031" y="652.144531" xlink:href="#j"/>
  <use x="534.359375" y="652.144531" xlink:href="#b"/>
  <use x="555.085938" y="652.144531" xlink:href="#h"/>
  <use x="573.367188" y="652.144531" xlink:href="#e"/>
  <use x="594.46875" y="652.144531" xlink:href="#g"/>
  <use x="614.492188" y="652.144531" xlink:href="#c"/>
  <use x="629.175781" y="652.144531" xlink:href="#h"/>
  <use x="647.457031" y="652.144531" xlink:href="#a"/>
  <use x="668.289062" y="652.144531" xlink:href="#g"/>
  <use x="688.308594" y="652.144531" xlink:href="#b"/>
  <use x="156.433594" y="682.859375" xlink:href="#v"/>
  <use x="169.796875" y="682.859375" xlink:href="#d"/>
  <use x="184.941406" y="682.859375" xlink:href="#e"/>
  <use x="206.046875" y="682.859375" xlink:href="#u"/>
  <use x="248.742188" y="682.859375" xlink:href="#c"/>
  <use x="263.425781" y="682.859375" xlink:href="#t"/>
  <use x="285.292969" y="682.859375" xlink:href="#a"/>
  <use x="316.816406" y="682.859375" xlink:href="#s"/>
  <use x="342.523438" y="682.859375" xlink:href="#e"/>
  <use x="363.625" y="682.859375" xlink:href="#r"/>
  <use x="385.492187" y="682.859375" xlink:href="#q"/>
  <use x="418.050781" y="682.859375" xlink:href="#p"/>
  <use x="440.5625" y="682.859375" xlink:href="#d"/>
  <use x="455.710938" y="682.859375" xlink:href="#e"/>
  <use x="476.8125" y="682.859375" xlink:href="#o"/>
  <use x="487.339844" y="682.859375" xlink:href="#a"/>
  <use x="508.171875" y="682.859375" xlink:href="#n"/>
  <use x="526.378906" y="682.859375" xlink:href="#c"/>
 </g>
</svg>
